<mxfile host="app.diagrams.net" modified="2024-03-01T01:09:37.591Z" agent="Mozilla/5.0 (Macintosh; Intel Mac OS X 10.15; rv:122.0) Gecko/20100101 Firefox/122.0" version="24.0.0" etag="0xIU2uewwupEpCly8iIV" type="github">
  <diagram name="PÃ¡gina-1" id="maQXk-UDbP-qcfr7grBd">
    <mxGraphModel>
      <root>
        <mxCell id="0" />
        <mxCell id="1" parent="0" />
      </root>
    </mxGraphModel>
  </diagram>
</mxfile>
